<svg xmlns="http://www.w3.org/2000/svg" width="1024" height="1024"><defs><linearGradient id="a" x1="92.744" x2="74.755" y1="18.026" y2="40.31" gradientUnits="userSpaceOnUse"><stop offset=".02" stop-color="#1D1C1C" stop-opacity="0"/><stop offset=".39" stop-color="#1D1C1C" stop-opacity=".66"/><stop offset=".68" stop-color="#1D1C1C"/></linearGradient><linearGradient id="b" x1="61.27" x2="79.755" y1="23.018" y2="4.534" gradientUnits="userSpaceOnUse"><stop offset=".02" stop-color="#1D1C1C" stop-opacity="0"/><stop offset=".39" stop-color="#1D1C1C" stop-opacity=".66"/><stop offset=".68" stop-color="#1D1C1C"/></linearGradient></defs><path fill="#fff48d" d="M0 0h1024v1024H0z"/><svg width="921.6" height="222" x="51.2" y="401" viewBox="-1.23 -1.23 180.37 43.46"><path fill="#1d1c1c" d="M156.82.04c-13.32 0-21.037 9.768-21.037 20.48h.002c0 10.712 7.66 20.48 21.035 20.48 13.376 0 21.09-9.768 21.09-20.48S170.141.04 156.82.04zM0 1.052l13.959 38.779h10.027l6.48-21.107 6.429 21.107h10.082l13.96-38.78H48.75L41.824 24.21 35.066 1.053h-9.195l-6.814 23.156-6.87-23.156Zm101.45.039v38.853h11.544V30.01h2.166l6.604 9.935h13.597l-7.77-11.822c4.442-2.498 7.104-7.27 7.104-12.545 0-7.825-5.717-14.486-14.597-14.486zm11.544 8.994h4.83c3.11 0 5.108 2.498 5.108 5.496s-2.054 5.494-5.162 5.494v-.002h-4.776zm43.826.498c5.937 0 9.38 4.773 9.38 9.936 0 5.16-3.498 9.935-9.38 9.935-5.882 0-9.38-4.775-9.38-9.935s3.442-9.936 9.38-9.936zM78.405 30.357h-.028c-4.318 0-7.346-2.577-8.646-5.988H99.07c.236-1.284.358-2.598.358-3.928C99.428 9.757 91.738.014 78.405 0v10.527c4.344.012 7.342 2.584 8.628 5.989H57.736a21.934 21.934 0 0 0-.354 3.927c0 10.692 7.7 20.444 20.995 20.444h.028V30.36z"/><path fill="url(#a)" d="M78.377 40.884c.451 0 .895-.014 1.335-.034 2.702-.137 5.153-.68 7.34-1.557a19.46 19.46 0 0 0 5.738-3.54 19.34 19.34 0 0 0 4.027-5.044c.95-1.71 1.644-3.56 2.08-5.491H86.671a9.762 9.762 0 0 1-.874 1.469c-.456.629-.99 1.2-1.596 1.693a8.588 8.588 0 0 1-2.036 1.23 9.135 9.135 0 0 1-2.45.662c-.43.055-.874.088-1.334.088-2.75 0-4.978-1.048-6.567-2.688l-7.947 7.948c3.536 3.229 8.442 5.264 14.516 5.264z"/><path fill="url(#b)" d="M78.378 0C67.102 0 59.85 7.013 57.908 15.67h12.189c1.457-2.983 4.328-5.143 8.28-5.143 3.151 0 5.596 1.346 7.194 3.382l8.02-8.02C90.008 2.302 84.857.002 78.375.002Z"/></svg></svg>