<svg width="345" height="49" viewBox="0 0 345 49" fill="none" xmlns="http://www.w3.org/2000/svg">
<path d="M238.02 14.15C241.6 10.24 245.16 6.48001 248.55 2.57001C249.15 1.78001 249.94 1.13999 250.85 0.739988C251.76 0.329988 252.76 0.169998 253.75 0.249998C258.01 0.459998 258.02 0.309997 258.02 4.53V45.58C258.02 47.22 257.79 47.91 255.91 47.84C252.12 47.68 252.11 47.84 252.11 43.99V7.33999L248 11.76C245.17 14.76 242.27 17.76 239.54 20.84C238.4 22.13 237.78 22.28 236.54 20.91C232.98 16.91 229.27 13.11 225.62 9.22C225.17 8.73 224.74 8.21999 223.91 7.26999V45.9C223.91 47.49 223.52 47.9 221.91 47.9C217.91 47.79 217.91 47.9 217.91 43.98V2.29999C217.91 0.719986 218.34 0.469986 219.91 0.299986C221.62 0.00998583 223.39 0.219992 224.98 0.899992C226.58 1.58999 227.94 2.72001 228.91 4.17001C231.64 7.64001 234.91 10.76 238.02 14.15Z" fill="#151B1F"/>
<path d="M100.94 17.5599V2.03995C100.94 0.679953 101.25 0.249933 102.67 0.269933C106.83 0.319933 106.83 0.269937 106.83 4.42994V45.48C106.83 47.2 106.63 47.9599 104.61 47.8399C100.93 47.6399 100.93 47.7899 100.93 44.0799V27.0299C100.93 26.3499 101.1 25.6299 100.53 25.0299L83.69 7.34995V45.6099C83.69 47.2999 83.39 47.9099 81.56 47.8299C77.83 47.6799 77.83 47.8299 77.83 44.0999C77.83 30.2099 77.83 16.31 77.78 2.41996C77.78 0.629958 78.35 0.419955 79.99 0.229955C83.79 -0.200045 86.35 1.22995 88.74 4.12995C92.47 8.66995 96.62 12.8399 100.94 17.5599Z" fill="#151B1F"/>
<path d="M43.39 47.6499C43.17 47.7099 42.95 47.7499 42.73 47.7799C39.09 47.8866 36.6067 46.2399 35.28 42.8399L22.35 9.54992C22.15 9.02992 21.94 8.54993 21.59 7.61993L8.59 42.6199C12.25 42.6199 15.64 42.6999 19.03 42.6199C20.57 42.5699 21.26 42.9199 21.03 44.5699C20.96 45.3399 20.96 46.1099 21.03 46.8799C21.03 47.6199 20.73 47.8799 20.03 47.8799H0C6.06 32.5899 12.08 17.4699 18 2.30993C18.14 1.67993 18.51 1.12992 19.04 0.769921C19.57 0.409921 20.22 0.259917 20.86 0.359917C25.03 0.489917 25.01 0.409917 26.52 4.35992C31.85 18.1999 37.21 32.0399 42.6 45.8799C42.83 46.3299 43.06 46.9099 43.39 47.6499Z" fill="#151B1F"/>
<path d="M160.07 24.03C160.07 16.73 160.12 9.43002 160.07 2.14002C160.07 0.650018 160.46 0.249993 161.94 0.269993C165.94 0.329993 165.94 0.269996 165.94 4.18V45.87C165.94 47.45 165.57 47.87 163.99 47.87C160.09 47.76 160.08 47.87 160.08 43.87V24.03H160.07Z" fill="#171E21"/>
<path d="M21.56 23.27C23.35 27.86 24.95 32.02 26.62 36.16C27 37.1 26.86 37.4 25.83 37.39H17.83C17.28 37.39 16.67 37.51 17.02 36.52C18.54 32.24 19.97 27.95 21.56 23.27Z" fill="#151B1F"/>
<path d="M343.07 14.97C341.26 10.58 338.18 6.81999 334.23 4.17999C330.28 1.53999 325.64 0.130005 320.88 0.130005C314.54 0.150005 308.47 2.66001 303.98 7.13C299.49 11.6 296.94 17.66 296.88 23.99C296.85 28.74 298.24 33.4 300.86 37.36C303.48 41.33 307.22 44.42 311.6 46.26C315.98 48.1 320.81 48.59 325.48 47.68C330.14 46.77 334.43 44.5 337.8 41.14C341.17 37.79 343.47 33.51 344.41 28.85C345.35 24.19 344.88 19.36 343.07 14.96V14.97ZM338.52 27.63C337.82 31.13 336.1 34.35 333.58 36.87C331.06 39.4 327.84 41.12 324.34 41.82C320.84 42.52 317.21 42.17 313.91 40.81C310.61 39.45 307.78 37.15 305.79 34.19C303.8 31.23 302.72 27.74 302.71 24.17C302.71 21.79 303.17 19.42 304.08 17.22C304.99 15.02 306.33 13.01 308.01 11.33C309.69 9.64999 311.7 8.30001 313.9 7.39001C316.1 6.48001 318.46 6.01001 320.85 6.01001C324.42 6.02001 327.91 7.08999 330.87 9.07999C333.83 11.07 336.14 13.89 337.5 17.19C338.86 20.49 339.22 24.12 338.52 27.62V27.63Z" fill="#151B1F"/>
<path d="M320.66 25.11C317.23 25.11 313.8 24.97 310.38 25.11C308.32 25.22 308.08 24.36 308.25 22.67C308.82 16.93 313.93 11.87 319.59 11.53C326.13 11.13 331.74 15.12 333.03 21.1C333.603 23.7667 332.56 25.1 329.9 25.1H320.66V25.11Z" fill="#EB6D6B"/>
</svg>
