<svg xmlns="http://www.w3.org/2000/svg" viewBox="0 0 136.02 18.87"><path class="AnimoTextLogo_cls-1__m05I3" d="M63.17,18.8h2.27V.07H63.17Z"></path><path class="AnimoTextLogo_cls-1__m05I3" d="M99.51,18.8h2.27V.07H98.93l-5,5.49L88.9.07H86.05V18.8h2.27v-16l5.6,6,5.59-6Z"></path><path class="AnimoTextLogo_cls-1__m05I3" d="M39.82,18.8h2.27V.07H39.82V6.91L33.57.07H30.72V18.8H33v-16L39.82,10Z"></path><path class="AnimoTextLogo_cls-1__m05I3" d="M14.65,18.8h2.44L9.83.07H7.41L0,18.8H8.2v-2H3.32L8.48,2.86Z"></path><path class="AnimoTextLogo_cls-1__m05I3" d="M10.64,14.67,8.48,9.17l-1.87,5.5Z"></path><path class="AnimoTextLogo_cls-1__m05I3" d="M126.59,0a8.77,8.77,0,0,0-1.15.07A9.43,9.43,0,1,0,126.59,0Zm0,16.6a7.16,7.16,0,0,1-1.44-14.18,7,7,0,0,1,2.88,0,7.16,7.16,0,0,1-1.44,14.18Z"></path><path class="AnimoTextLogo_cls-2__I_VZR" d="M131.13,9.44a4.54,4.54,0,1,0-9.08,0Z"></path></svg>